<?xml version="1.0" encoding="utf-8"?>
<svg xmlns="http://www.w3.org/2000/svg" version="1.1" viewBox="0 0 1400 340">
	<title>The titlepage for the Standard Ebooks edition of Poetry, by Henry van Dyke Jr.</title>
	<g aria-label="POETRY">
		<path d="M502.19,52.81l28.16,0.00c15.06,0.00,26.39,7.77,26.39,23.77c0.00,15.91-11.32,24.80-26.39,24.80l-10.57,0.00l0.00,28.63l-17.59,0.00l0.00-77.19z  M519.78,87.33l4.96,0.00c6.92,0.00,13.47-2.34,13.47-10.20c0.00-7.95-6.55-10.29-13.47-10.29l-4.96,0.00l0.00,20.49z"/>
		<path d="M566.04,91.36c0.00-22.55,17.68-39.95,38.92-39.95c21.43,0.00,38.83,17.40,38.83,39.95s-16.65,40.05-38.83,40.05c-22.83,0.00-38.92-17.50-38.92-40.05z  M585.04,91.36c0.00,11.51,5.52,23.02,19.93,23.02c14.04,0.00,19.84-11.51,19.84-23.02s-6.18-23.02-19.84-23.02c-13.57,0.00-19.93,11.51-19.93,23.02z"/>
		<path d="M700.73,52.81l0.00,15.44l-26.57,0.00l0.00,15.35l25.45,0.00l0.00,15.44l-25.45,0.00l0.00,15.53l26.57,0.00l0.00,15.44l-44.16,0.00l0.00-77.19l44.16,0.00z"/>
		<path d="M710.97,68.25l0.00-15.44l54.27,0.00l0.00,15.44l-18.34,0.00l0.00,61.75l-17.59,0.00l0.00-61.75l-18.34,0.00z"/>
		<path d="M776.60,52.81l27.60,0.00c14.32,0.00,25.17,7.77,25.17,22.92c0.00,11.60-6.36,19.37-15.81,22.36l26.57,31.91l-22.36,0.00l-23.58-30.50l0.00,30.50l-17.59,0.00l0.00-77.19z  M794.19,87.05l2.06,0.00c6.64,0.00,14.60-0.47,14.60-10.11s-7.95-10.11-14.60-10.11l-2.06,0.00l0.00,20.21z"/>
		<path d="M831.75,52.81l21.15,0.00l16.09,24.70l16.09-24.70l21.15,0.00l-28.44,42.57l0.00,34.62l-17.59,0.00l0.00-34.62z"/>
	</g>
	<g aria-label="HENRY VAN DYKE JR.">
		<path d="M294.13,266.77l0.00,23.23l-13.19,0.00l0.00-57.89l13.19,0.00l0.00,23.09l18.67,0.00l0.00-23.09l13.19,0.00l0.00,57.89l-13.19,0.00l0.00-23.23l-18.67,0.00z"/>
		<path d="M372.54,232.11l0.00,11.58l-19.93,0.00l0.00,11.51l19.09,0.00l0.00,11.58l-19.09,0.00l0.00,11.65l19.93,0.00l0.00,11.58l-33.12,0.00l0.00-57.89l33.12,0.00z"/>
		<path d="M398.31,254.07l0.00,35.93l-13.19,0.00l0.00-57.89l13.19,0.00l23.02,35.93l0.14,0.00l0.00-35.93l13.19,0.00l0.00,57.89l-13.19,0.00l-23.02-35.93l-0.14,0.00z"/>
		<path d="M448.08,232.11l20.70,0.00c10.74,0.00,18.88,5.82,18.88,17.19c0.00,8.70-4.77,14.53-11.86,16.77l19.93,23.93l-16.77,0.00l-17.68-22.88l0.00,22.88l-13.19,0.00l0.00-57.89z  M461.27,257.79l1.54,0.00c4.98,0.00,10.95-0.35,10.95-7.58s-5.96-7.58-10.95-7.58l-1.54,0.00l0.00,15.16z"/>
		<path d="M490.69,232.11l15.86,0.00l12.07,18.53l12.07-18.53l15.86,0.00l-21.33,31.93l0.00,25.96l-13.19,0.00l0.00-25.96z"/>
		<path d="M589.96,290.00l-24.28-57.89l14.88,0.00l14.60,38.04l14.60-38.04l14.88,0.00l-24.28,57.89l-10.39,0.00z"/>
		<path d="M654.89,232.11l23.37,57.89l-14.18,0.00l-4.28-11.58l-22.04,0.00l-4.28,11.58l-14.18,0.00l23.37-57.89l12.21,0.00z  M655.31,266.84l-6.46-16.84l-0.14,0.00l-6.46,16.84l13.05,0.00z"/>
		<path d="M698.69,254.07l0.00,35.93l-13.19,0.00l0.00-57.89l13.19,0.00l23.02,35.93l0.14,0.00l0.00-35.93l13.19,0.00l0.00,57.89l-13.19,0.00l-23.02-35.93l-0.14,0.00z"/>
		<path d="M772.62,232.11l16.77,0.00c15.86,0.00,29.19,12.07,29.19,28.91c0.00,16.91-13.26,28.98-29.19,28.98l-16.77,0.00l0.00-57.89z  M785.82,278.21l2.04,0.00c9.75,0.00,16.42-7.44,16.49-17.12c0.00-9.68-6.67-17.19-16.49-17.19l-2.04,0.00l0.00,34.32z"/>
		<path d="M816.78,232.11l15.86,0.00l12.07,18.53l12.07-18.53l15.86,0.00l-21.33,31.93l0.00,25.96l-13.19,0.00l0.00-25.96z"/>
		<path d="M932.45,290.00l-18.18,0.00l-21.33-24.56l0.00,24.56l-13.19,0.00l0.00-57.89l13.19,0.00l0.00,23.65l19.86-23.65l16.00,0.00l-23.30,27.44z"/>
		<path d="M973.10,232.11l0.00,11.58l-19.93,0.00l0.00,11.51l19.09,0.00l0.00,11.58l-19.09,0.00l0.00,11.65l19.93,0.00l0.00,11.58l-33.12,0.00l0.00-57.89l33.12,0.00z"/>
		<path d="M1035.03,232.11l0.00,41.54c0.00,11.37-6.46,17.40-18.04,17.40c-8.28,0.00-13.54-5.54-13.54-5.54l4.21-11.02s4.14,3.93,7.51,3.93c3.79,0.00,6.67-2.32,6.67-8.14l0.00-38.18l13.19,0.00z"/>
		<path d="M1047.75,232.11l20.70,0.00c10.74,0.00,18.88,5.82,18.88,17.19c0.00,8.70-4.77,14.53-11.86,16.77l19.93,23.93l-16.77,0.00l-17.68-22.88l0.00,22.88l-13.19,0.00l0.00-57.89z  M1060.94,257.79l1.54,0.00c4.98,0.00,10.95-0.35,10.95-7.58s-5.96-7.58-10.95-7.58l-1.54,0.00l0.00,15.16z"/>
		<path d="M1110.99,274.98c4.49,0.00,8.07,3.58,8.07,8.07c0.00,4.42-3.58,8.00-8.07,8.00c-4.42,0.00-8.00-3.58-8.00-8.00c0.00-4.49,3.58-8.07,8.00-8.07z"/>
	</g>
</svg>
